# Blender v2.78 (sub 0) OBJ File: 'otukue.blend'
# www.blender.org
mtllib otukue.mtl
o part0_texture0
v -0.105469 0.079169 0.000000
v -0.085938 0.063544 -0.007812
v -0.105469 0.059637 0.000000
v -0.085938 0.071356 -0.007812
v -0.066406 0.098700 -0.015625
v -0.046875 0.094794 -0.019531
v -0.082031 0.071356 0.011719
v -0.101562 0.059637 0.015625
v -0.082031 0.063544 0.007813
v -0.097656 0.079169 0.015625
v -0.042969 0.094794 -0.003906
v -0.058594 0.098700 0.003906
v -0.003906 0.079169 0.132813
v 0.015625 0.063544 0.136719
v -0.003906 0.059637 0.132813
v 0.015625 0.071356 0.136719
v 0.039062 0.098700 0.140625
v 0.058594 0.094794 0.144531
v 0.011719 0.071356 0.156250
v -0.007812 0.059637 0.152344
v 0.011719 0.063544 0.156250
v -0.007812 0.079169 0.152344
v 0.054688 0.094794 0.164063
v 0.035156 0.098700 0.160156
v 0.046875 0.126044 0.144531
v -0.140625 0.067450 0.019531
v -0.093750 0.165106 0.062500
v -0.082031 0.165106 0.000000
v -0.152344 0.165106 0.082031
v -0.199219 0.165106 0.039063
v -0.058594 0.126044 -0.019531
v -0.128906 0.165106 -0.042969
v -0.171875 0.032294 -0.011719
v -0.187500 0.165106 -0.023437
v -0.136719 0.032294 -0.023437
v -0.101562 0.032294 0.007813
v -0.109375 0.032294 0.050781
v -0.148438 0.032294 0.066406
v -0.179688 0.032294 0.031250
v -0.042969 0.067450 0.132813
v 0.000000 0.165106 0.085938
v -0.062500 0.165106 0.074219
v 0.019531 0.165106 0.148438
v -0.082031 0.161200 0.011719
v -0.050781 0.126044 0.000000
v -0.031250 0.133856 -0.007812
v -0.085938 0.141669 0.011719
v -0.089844 0.161200 -0.007812
v -0.039062 0.133856 -0.023437
v -0.093750 0.141669 -0.007812
v -0.105469 0.165106 0.121094
v -0.085938 0.165106 0.183594
v -0.023438 0.165106 0.195313
v -0.082031 0.032294 0.125000
v -0.054688 0.032294 0.089844
v -0.007812 0.032294 0.144531
v -0.035156 0.032294 0.179688
v -0.015625 0.032294 0.097656
v -0.070312 0.032294 0.171875
v 0.007812 0.161200 0.156250
v 0.042969 0.126044 0.164063
v 0.062500 0.133856 0.167969
v 0.007812 0.141669 0.156250
v 0.011719 0.161200 0.136719
v 0.066406 0.133856 0.148438
v 0.011719 0.141669 0.136719
vt 0.4238 -0.6523
vt 0.4551 -0.1836
vt 0.4238 -0.1836
vt 0.4551 -0.6523
vt 0.4238 -0.1836
vt 0.4551 -0.1836
vt 0.4551 -0.6523
vt 0.4238 -0.1836
vt 0.4551 -0.1836
vt 0.4238 -0.6523
vt 0.4551 -0.1836
vt 0.4238 -0.1836
vt 0.4238 -0.6523
vt 0.4551 -0.1836
vt 0.4238 -0.1836
vt 0.4551 -0.6523
vt 0.4238 -0.1836
vt 0.4551 -0.1836
vt 0.4551 -0.6523
vt 0.4238 -0.1836
vt 0.4551 -0.1836
vt 0.4238 -0.6523
vt 0.4551 -0.1836
vt 0.4238 -0.1836
vt 0.0000 -1.0000
vt 0.0000 -1.0000
vt 0.0000 -1.0000
vt 0.0000 -1.0000
vt 0.0000 -1.0000
vt 0.4883 -0.6367
vt 0.2695 0.0000
vt 0.6602 0.0000
vt 0.6602 0.0000
vt 0.2695 0.0000
vt 0.0000 -1.0000
vt 0.0000 -1.0000
vt 0.0000 -1.0000
vt 0.0000 -1.0000
vt 0.0000 -1.0000
vt 0.3945 0.0000
vt 0.5664 -0.8398
vt 0.5664 0.0000
vt 0.3945 -0.8398
vt 0.3945 0.0000
vt 0.5664 -0.8398
vt 0.5664 0.0000
vt 0.3945 -0.8398
vt 0.3945 0.0000
vt 0.5664 -0.8398
vt 0.5664 0.0000
vt 0.3945 -0.8398
vt 0.3945 0.0000
vt 0.5664 -0.8398
vt 0.5664 0.0000
vt 0.3945 -0.8398
vt 0.4883 -0.6367
vt 0.6602 0.0000
vt 0.2695 0.0000
vt 0.2695 0.0000
vt 0.4551 -0.1836
vt 0.4238 -0.6523
vt 0.4551 -0.6523
vt 0.4238 -0.1836
vt 0.4551 -0.1836
vt 0.4238 -0.6523
vt 0.4551 -0.6523
vt 0.4238 -0.1836
vt 0.4238 -0.1836
vt 0.4238 -0.6523
vt 0.4238 -0.6523
vt 0.4551 -0.6523
vt 0.2695 0.0000
vt 0.6602 0.0000
vt 0.6602 0.0000
vt 0.4238 -0.6523
vt 0.4238 -0.1836
vt 0.2695 0.0000
vt 0.6602 0.0000
vt 0.4238 -0.1836
vt 0.4551 -0.6523
vt 0.4238 -0.6523
vt 0.4551 -0.1836
vt 0.4551 -0.1836
vt 0.4238 -0.6523
vt 0.4551 -0.6523
vt 0.4238 -0.1836
vt 0.4238 -0.6523
vt 0.4238 -0.1836
vt 0.4238 -0.6523
vt 0.4238 -0.1836
vt 0.0000 -1.0000
vt 0.0000 -1.0000
vt 0.0000 -1.0000
vt 0.3945 0.0000
vt 0.5664 -0.8398
vt 0.5664 0.0000
vt 0.3945 -0.8398
vt 0.3945 0.0000
vt 0.5664 -0.8398
vt 0.5664 0.0000
vt 0.3945 -0.8398
vt 0.3945 0.0000
vt 0.5664 -0.8398
vt 0.5664 0.0000
vt 0.3945 -0.8398
vt 0.3945 0.0000
vt 0.5664 -0.8398
vt 0.5664 0.0000
vt 0.3945 -0.8398
vt 0.3945 0.0000
vt 0.5664 -0.8398
vt 0.5664 0.0000
vt 0.3945 -0.8398
vt 0.3945 0.0000
vt 0.5664 -0.8398
vt 0.5664 0.0000
vt 0.3945 -0.8398
vt 0.6602 0.0000
vt 0.2695 0.0000
vt 0.2695 0.0000
vt 0.4551 -0.1836
vt 0.4238 -0.6523
vt 0.4551 -0.6523
vt 0.4238 -0.1836
vt 0.4551 -0.1836
vt 0.4238 -0.6523
vt 0.4551 -0.6523
vt 0.4238 -0.1836
vt 0.4238 -0.1836
vt 0.4238 -0.6523
vt 0.4238 -0.6523
vt 0.4551 -0.6523
vt 0.3945 0.0000
vt 0.5664 -0.8398
vt 0.5664 0.0000
vt 0.3945 -0.8398
vt 0.4238 -0.6523
vt 0.4238 -0.1836
vt 0.3945 0.0000
vt 0.5664 -0.8398
vt 0.5664 0.0000
vt 0.3945 -0.8398
vt 0.4238 -0.1836
vt 0.4551 -0.6523
vt 0.4238 -0.6523
vt 0.4551 -0.1836
vt 0.4551 -0.1836
vt 0.4238 -0.6523
vt 0.4551 -0.6523
vt 0.4238 -0.1836
vt 0.4238 -0.6523
vt 0.4238 -0.1836
vt 0.4238 -0.6523
vt 0.4238 -0.1836
vt 0.0000 -1.0000
vt 0.0000 -1.0000
vt 0.0000 -1.0000
vt 0.6602 0.0000
vn -0.3165 0.0000 -0.9486
vn 0.3165 0.0000 0.9486
vn 0.3164 0.0000 0.9486
vn 0.2065 -0.0000 -0.9784
vn -0.2065 0.0000 0.9784
vn -0.7545 0.6367 -0.1592
vn -0.4532 0.8862 -0.0957
vn -0.9372 0.2872 -0.1978
vn 0.0000 1.0000 0.0000
vn -0.6333 0.5418 -0.5526
vn -0.8024 0.5334 0.2677
vn 0.1747 0.5418 -0.8221
vn 0.8023 0.5335 -0.2677
vn -0.7315 0.6367 0.2440
vn -0.4394 0.8862 0.1466
vn -0.9086 0.2872 0.3031
vn 0.2150 -0.1521 -0.9647
vn -0.7511 -0.1521 -0.6424
vn 0.9360 -0.1628 -0.3122
vn 0.9359 -0.1628 -0.3123
vn -0.2150 -0.1521 0.9647
vn 0.7511 -0.1521 0.6424
vn -0.9359 -0.1628 0.3122
vn -0.9359 -0.1628 0.3123
vn -0.5664 0.5418 0.6210
vn 0.2671 0.5418 0.7969
vn -0.8276 0.5335 -0.1747
vn 0.3953 0.9090 -0.1318
vn 0.3953 0.9090 -0.1319
vn -0.3164 0.0000 -0.9486
vn 0.1386 -0.9893 -0.0463
vn 0.8276 0.5335 0.1747
vn 0.5663 0.5418 -0.6210
vn 0.9459 0.0757 -0.3156
vn 0.8255 -0.4926 -0.2754
vn 0.9459 0.0755 -0.3156
vn -0.2671 0.5418 -0.7969
vn 0.9276 -0.2095 -0.3094
vn 0.7503 -0.6119 -0.2503
vn -0.3765 -0.9179 0.1256
vn -0.3233 -0.1521 -0.9340
vn -0.9654 -0.1628 -0.2037
vn 0.3233 -0.1522 0.9340
vn 0.9654 -0.1628 0.2037
vn 0.9654 -0.1628 0.2038
vn 0.3233 -0.1521 0.9340
vn 0.6732 -0.1521 -0.7237
vn -0.6732 -0.1521 0.7237
vn -0.1747 0.5418 0.8221
vn 0.6333 0.5418 0.5526
vn -0.2065 0.0000 0.9785
vn 0.4077 0.9090 0.0861
vn 0.1430 -0.9893 0.0302
vn 0.9756 0.0756 0.2059
vn 0.8515 -0.4926 0.1797
vn 0.9567 -0.2095 0.2019
vn 0.7739 -0.6119 0.1633
vn -0.3883 -0.9179 -0.0819
vn -0.3883 -0.9179 -0.0820
usemtl Material.001
s 1
f 1/1/1 2/2/1 3/3/1
f 2/2/1 1/1/1 4/4/1
f 5/5/1 4/4/1 1/1/1
f 4/4/1 5/5/1 6/6/1
f 7/7/2 8/8/3 9/9/2
f 8/8/2 7/7/2 10/10/2
f 11/11/2 10/10/2 7/7/2
f 10/10/2 11/11/2 12/12/2
f 13/13/4 14/14/4 15/15/4
f 14/14/4 13/13/4 16/16/4
f 17/17/4 16/16/4 13/13/4
f 16/16/4 17/17/4 18/18/4
f 19/19/5 20/20/5 21/21/5
f 20/20/5 19/19/5 22/22/5
f 23/23/5 22/22/5 19/19/5
f 22/22/5 23/23/5 24/24/5
f 24/25/6 13/26/7 22/27/7
f 13/26/7 24/25/6 17/28/6
f 25/29/8 17/28/6 24/25/6
f 26/30/9 27/31/10 28/32/11
f 27/31/10 26/30/9 29/33/12
f 30/34/13 29/33/12 26/30/9
f 12/35/14 1/36/15 10/37/15
f 1/36/15 12/35/14 5/38/14
f 31/39/16 5/38/14 12/35/14
f 32/40/17 33/41/18 34/42/18
f 33/41/18 32/40/17 35/43/17
f 28/44/19 35/45/17 32/46/17
f 35/45/17 28/44/19 36/47/20
f 29/48/21 37/49/22 27/50/22
f 37/49/22 29/48/21 38/51/21
f 30/52/23 38/53/21 29/54/21
f 38/53/21 30/52/23 39/55/24
f 40/56/9 41/57/25 42/58/26
f 41/57/25 40/56/9 43/59/27
f 44/60/2 45/61/2 46/62/2
f 45/61/2 44/60/2 47/63/2
f 48/64/28 46/65/29 49/66/29
f 46/65/29 48/64/28 44/67/29
f 50/68/1 49/66/30 31/69/1
f 49/66/30 50/68/1 48/64/1
f 9/9/31 3/70/31 2/71/31
f 3/70/31 9/9/31 8/8/31
f 51/72/32 40/56/9 42/73/26
f 40/56/9 51/72/32 52/74/33
f 9/9/34 4/75/35 7/7/35
f 4/75/35 9/9/34 2/76/36
f 53/77/37 40/56/9 52/74/33
f 40/56/9 53/77/37 43/78/27
f 31/79/1 6/80/1 5/81/1
f 6/80/1 31/79/1 49/82/30
f 46/83/2 12/84/2 11/85/2
f 12/84/2 46/83/2 45/86/2
f 49/82/38 11/87/39 6/80/39
f 11/87/39 49/82/38 46/88/38
f 6/6/39 7/89/35 4/4/35
f 7/89/35 6/6/39 11/90/39
f 47/91/40 31/39/40 45/92/40
f 31/39/40 47/91/40 50/93/40
f 42/94/41 54/95/42 51/96/42
f 54/95/42 42/94/41 55/97/41
f 53/98/43 56/99/44 43/100/45
f 56/99/44 53/98/43 57/101/46
f 41/102/47 55/103/41 42/104/41
f 55/103/41 41/102/47 58/105/47
f 43/106/45 58/107/47 41/108/47
f 58/107/47 43/106/45 56/109/44
f 52/110/48 57/111/46 53/112/43
f 57/111/46 52/110/48 59/113/48
f 51/114/42 59/115/48 52/116/48
f 59/115/48 51/114/42 54/117/42
f 32/118/49 26/30/9 28/119/11
f 26/30/9 32/118/49 34/120/50
f 60/121/5 61/122/5 62/123/5
f 61/122/5 60/121/5 63/124/51
f 64/125/52 62/126/52 65/127/52
f 62/126/52 64/125/52 60/128/52
f 66/129/4 65/127/4 25/130/4
f 65/127/4 66/129/4 64/125/4
f 21/21/53 15/131/53 14/132/53
f 15/131/53 21/21/53 20/20/53
f 34/133/18 39/134/24 30/135/23
f 39/134/24 34/133/18 33/136/18
f 21/21/54 16/137/55 19/19/55
f 16/137/55 21/21/54 14/138/54
f 27/139/22 36/140/20 28/141/19
f 36/140/20 27/139/22 37/142/22
f 25/143/4 18/144/4 17/145/4
f 18/144/4 25/143/4 65/146/4
f 62/147/5 24/148/5 23/149/5
f 24/148/5 62/147/5 61/150/5
f 65/146/56 23/151/57 18/144/57
f 23/151/57 65/146/56 62/152/56
f 18/18/57 19/153/55 16/16/55
f 19/153/55 18/18/57 23/154/57
f 63/155/58 25/29/59 61/156/58
f 25/29/59 63/155/58 66/157/58
f 45/92/16 31/39/16 12/35/14
f 26/30/9 34/158/50 30/34/13
f 61/156/8 25/29/8 24/25/6
o part1_texture1
v 0.039062 0.032294 0.019531
v 0.011719 0.321356 -0.066406
v -0.027344 0.032294 -0.062500
v 0.054688 0.321356 -0.007812
v 0.140625 0.032294 0.000000
v 0.117188 0.321356 -0.019531
v 0.175781 0.032294 -0.097656
v 0.136719 0.321356 -0.089844
v 0.109375 0.032294 -0.175781
v 0.093750 0.321356 -0.148437
v 0.007812 0.032294 -0.160156
v 0.031250 0.321356 -0.136719
v -0.089844 0.297919 -0.027344
v -0.097656 0.297919 -0.074219
v -0.105469 0.286200 -0.046875
v -0.082031 0.309637 -0.050781
v 0.039062 0.254950 -0.031250
v -0.035156 0.309637 -0.058594
v -0.035156 0.294012 -0.035156
v 0.035156 0.278387 -0.070312
v -0.042969 0.294012 -0.082031
v -0.046875 0.278387 -0.058594
v 0.070312 0.344794 -0.062500
v 0.046875 0.379950 -0.074219
v 0.058594 0.344794 -0.074219
v 0.066406 0.379950 -0.050781
v 0.085938 0.344794 -0.066406
v 0.093750 0.379950 -0.058594
v 0.058594 0.379950 -0.101562
v 0.066406 0.344794 -0.089844
v 0.082031 0.379950 -0.105469
v 0.078125 0.344794 -0.093750
v 0.089844 0.344794 -0.082031
v 0.101562 0.379950 -0.082031
v 0.128906 0.313544 -0.101562
v 0.222656 0.294012 -0.089844
v 0.214844 0.294012 -0.117187
v 0.132812 0.313544 -0.074219
v 0.125000 0.290106 -0.101562
v 0.187500 0.278387 -0.113281
v 0.187500 0.122137 -0.085937
v 0.156250 0.102606 -0.109375
v 0.183594 0.122137 -0.113281
v 0.160156 0.102606 -0.078125
v 0.148438 0.145575 -0.105469
v 0.175781 0.145575 -0.109375
v 0.183594 0.145575 -0.082031
v 0.156250 0.145575 -0.078125
v 0.218750 0.204169 -0.117187
v 0.187500 0.204169 -0.113281
v 0.191406 0.204169 -0.085937
v 0.222656 0.204169 -0.089844
v 0.191406 0.278387 -0.085937
v 0.132812 0.290106 -0.074219
v 0.023438 0.254950 -0.109375
v 0.027344 0.227606 -0.070312
v 0.074219 0.379950 -0.078125
v 0.074219 0.348700 -0.078125
vt 0.2570 -0.6980
vt 0.2020 -0.0481
vt 0.0616 -0.6980
vt 0.3241 -0.0481
vt 0.6476 -0.6980
vt 0.5682 -0.0481
vt 0.8429 -0.6980
vt 0.6903 -0.0481
vt 0.6476 -0.6980
vt 0.5682 -0.0481
vt 0.2570 -0.6980
vt 0.3241 -0.0481
vt 0.0820 -0.9648
vt 0.8320 -0.8086
vt 0.0820 -0.8086
vt 0.8320 -0.9648
vt 0.0820 -0.9648
vt 0.8320 -0.8086
vt 0.0820 -0.8086
vt 0.8320 -0.9648
vt 0.0820 -0.9648
vt 0.8320 -0.8086
vt 0.0820 -0.8086
vt 0.8320 -0.9648
vt 0.0820 -0.9648
vt 0.0820 -0.8086
vt 0.0820 -0.9648
vt 0.8320 -0.8086
vt 0.0820 -0.8086
vt 0.8320 -0.9648
vt 0.8320 -0.8086
vt 0.8320 -0.9648
vt 0.0806 -0.7734
vt 0.5323 -0.2109
vt 0.5323 -0.7734
vt 0.0806 -0.2109
vt 0.0806 -0.7734
vt 0.5323 -0.2109
vt 0.5323 -0.7734
vt 0.0806 -0.2109
vt 0.0806 -0.7734
vt 0.5323 -0.2109
vt 0.5323 -0.7734
vt 0.0806 -0.2109
vt 0.0806 -0.7734
vt 0.5323 -0.2109
vt 0.5323 -0.7734
vt 0.0806 -0.2109
vt 0.0806 -0.7734
vt 0.5323 -0.2109
vt 0.5323 -0.7734
vt 0.0806 -0.2109
vt 0.0806 -0.7734
vt 0.5323 -0.2109
vt 0.5323 -0.7734
vt 0.0806 -0.2109
vt 0.8477 -0.8086
vt 0.0820 -0.9648
vt 0.8477 -0.9648
vt 0.0820 -0.8086
vt 0.8477 -0.8086
vt 0.0820 -0.9648
vt 0.8477 -0.9648
vt 0.0820 -0.8086
vt 1.0000 -0.8333
vt 0.2500 -1.0000
vt 1.0000 -0.8333
vt 0.2500 -1.0000
vt 0.8477 -0.8086
vt 0.0820 -0.9648
vt 0.8477 -0.9648
vt 0.0820 -0.8086
vt 0.8477 -0.8086
vt 0.0820 -0.9648
vt 0.8477 -0.9648
vt 0.0820 -0.8086
vt 0.8477 -0.8086
vt 0.0820 -0.9648
vt 0.8477 -0.9648
vt 0.0820 -0.8086
vt 0.8477 -0.8086
vt 0.0820 -0.9648
vt 0.8477 -0.9648
vt 0.0820 -0.8086
vt 0.8477 -0.8086
vt 0.0820 -0.9648
vt 0.8477 -0.9648
vt 0.0820 -0.8086
vt 0.8477 -0.8086
vt 0.0820 -0.9648
vt 0.8477 -0.9648
vt 0.0820 -0.8086
vt 0.8477 -0.8086
vt 0.8477 -0.9648
vt 0.0820 -0.8086
vt 0.8477 -0.8086
vt 0.0820 -0.8086
vt 0.8477 -0.8086
vt 0.0820 -0.9648
vt 0.0820 -0.8086
vt 0.0820 -0.9648
vt 0.8477 -0.9648
vt 0.0820 -0.8086
vt 0.8477 -0.9648
vt 0.0820 -0.8086
vt 0.8477 -0.9648
vt 0.0820 -0.8086
vt 0.8477 -0.8086
vt 0.0820 -0.9648
vt 0.0820 -0.9648
vt 0.8320 -0.9648
vt 0.0820 -0.9648
vt 0.8320 -0.9648
vt 0.0000 0.0000
vt 0.7500 0.0000
vt 0.0000 0.0000
vt 0.7500 0.0000
vt 0.8477 -0.8086
vt 0.8477 -0.9648
vt 0.0820 -0.8086
vt 0.0820 -0.9648
vt 0.8320 -0.9648
vt 0.7903 -0.4609
vt 0.2097 -0.4609
vt 0.5323 -0.6797
vt 0.8789 -0.8086
vt 0.0977 -0.8086
vt 0.5078 -1.0000
vt 0.7903 -0.4609
vt 0.2097 -0.4609
vt 0.7903 -0.4609
vt 0.2097 -0.4609
vt 0.8789 -0.8086
vt 0.0977 -0.8086
vt 0.8789 -0.8086
vt 0.0977 -0.8086
vt 0.7903 -0.4609
vt 0.2097 -0.4609
vt 0.8789 -0.8086
vt 0.0977 -0.8086
vt 0.7903 -0.4609
vt 0.2097 -0.4609
vt 0.7903 -0.4609
vt 0.2097 -0.4609
vt 0.8789 -0.8086
vt 0.0977 -0.8086
vt 0.4883 -0.9805
vt 0.8789 -0.8086
vt 0.0977 -0.8086
vn -0.3558 0.1148 0.9275
vn -0.7759 0.6157 0.1375
vn -0.9772 0.1230 0.1732
vn -0.2874 0.6377 0.7146
vn 0.6529 0.1148 0.7487
vn 0.5155 0.6377 0.5723
vn 0.9772 0.1230 -0.1732
vn 0.7759 0.6157 -0.1375
vn 0.3559 0.1149 -0.9275
vn 0.2874 0.6377 -0.7146
vn -0.6529 0.1148 -0.7487
vn -0.5155 0.6377 -0.5724
vn -0.3329 0.8749 0.3519
vn -0.4334 0.8747 -0.2170
vn -0.7020 0.7012 0.1244
vn -0.2644 0.9633 0.0463
vn 0.4154 0.7670 0.4891
vn 0.2045 0.9782 -0.0359
vn 0.2656 0.8229 0.5023
vn 0.3841 0.9209 -0.0665
vn -0.0790 -0.9968 0.0143
vn -0.3869 -0.7857 -0.4827
vn -0.3474 -0.9358 0.0605
vn -0.1590 -0.8484 -0.5049
vn 0.0784 0.8230 -0.5627
vn 0.0245 -0.8482 0.5292
vn -0.1971 -0.7873 0.5842
vn -0.3335 -0.3081 0.8910
vn -0.9396 -0.2992 0.1665
vn -0.9395 -0.2992 0.1665
vn -0.3334 -0.3081 0.8910
vn 0.6194 -0.3081 0.7221
vn -0.6193 -0.3081 -0.7222
vn 0.3335 -0.3081 -0.8910
vn 0.3334 -0.3081 -0.8910
vn 0.9395 -0.2992 -0.1665
vn 0.2255 0.9734 -0.0400
vn 0.2256 0.9734 -0.0400
vn -0.1745 0.0000 -0.9847
vn 0.9177 -0.3625 -0.1626
vn 0.5590 -0.8232 -0.0990
vn 0.5590 -0.8232 -0.0991
vn 0.9680 -0.1831 -0.1716
vn 0.9680 -0.1831 -0.1715
vn 0.1745 -0.0000 0.9847
vn 0.9845 0.0164 -0.1745
vn 0.9440 -0.2845 -0.1673
vn -0.1916 -0.9809 0.0339
vn -0.1916 -0.9809 0.0340
vn -0.9846 0.0008 0.1745
vn -0.9432 0.2870 0.1672
vn -0.9847 0.0008 0.1745
vn -0.9621 0.2130 0.1705
vn -0.9733 -0.1516 0.1725
vn -0.5930 -0.6787 -0.4334
vn -0.5893 -0.8015 0.1020
vn -0.4078 -0.6825 0.6066
vn -0.9835 0.0478 0.1743
vn 0.2247 0.7679 -0.5999
vn 0.0000 1.0000 0.0000
usemtl Material.002
s 1
f 67/159/60 68/160/61 69/161/62
f 68/160/61 67/159/60 70/162/63
f 71/163/64 70/162/63 67/159/60
f 70/162/63 71/163/64 72/164/65
f 73/165/66 72/164/65 71/163/64
f 72/164/65 73/165/66 74/166/67
f 75/167/68 74/166/67 73/165/66
f 74/166/67 75/167/68 76/168/69
f 77/169/70 76/168/69 75/167/68
f 76/168/69 77/169/70 78/170/71
f 69/161/62 78/170/71 77/169/70
f 78/170/71 69/161/62 68/160/61
f 79/171/72 80/172/73 81/173/74
f 80/172/73 79/171/72 82/174/75
f 83/175/76 84/176/77 85/177/78
f 84/176/77 83/175/76 86/178/79
f 81/179/80 87/180/81 88/181/82
f 87/180/81 81/179/80 80/182/83
f 80/183/73 84/176/77 87/184/84
f 84/176/77 80/183/73 82/174/75
f 82/185/75 85/186/78 84/187/77
f 85/186/78 82/185/75 79/188/72
f 79/171/85 88/189/82 85/177/86
f 88/189/82 79/171/85 81/190/80
f 89/191/87 90/192/88 91/193/89
f 90/192/88 89/191/87 92/194/90
f 93/195/91 92/196/90 89/197/87
f 92/196/90 93/195/91 94/198/91
f 91/199/89 95/200/92 96/201/92
f 95/200/92 91/199/89 90/202/88
f 96/203/92 97/204/93 98/205/94
f 97/204/93 96/203/92 95/206/92
f 99/207/95 94/208/91 93/209/91
f 94/208/91 99/207/95 100/210/95
f 98/211/94 100/212/95 99/213/95
f 100/212/95 98/211/94 97/214/93
f 101/215/96 102/216/97 103/217/97
f 102/216/97 101/215/96 104/218/96
f 105/219/98 103/220/98 106/221/98
f 103/220/98 105/219/98 101/222/98
f 107/223/99 108/224/100 109/225/99
f 108/224/100 107/223/99 110/226/101
f 109/227/98 111/228/98 112/229/98
f 111/228/98 109/227/98 108/230/98
f 107/231/99 112/232/102 113/233/103
f 112/232/102 107/231/99 109/234/99
f 110/235/104 113/236/104 114/237/104
f 113/236/104 110/235/104 107/238/104
f 106/239/98 115/240/98 116/241/98
f 115/240/98 106/239/98 103/242/98
f 102/243/104 117/244/104 118/245/104
f 117/244/104 102/243/104 119/246/104
f 103/247/105 118/248/106 115/249/106
f 118/248/106 103/247/105 102/250/105
f 116/251/98 112/232/98 111/252/98
f 112/232/98 116/251/98 115/253/98
f 115/254/106 113/236/103 112/229/102
f 113/236/103 115/254/106 118/255/106
f 118/256/104 114/257/104 113/233/104
f 114/257/104 118/256/104 117/258/104
f 105/219/107 119/259/108 120/260/108
f 119/259/108 105/219/107 106/261/108
f 106/239/109 117/244/110 119/262/111
f 117/244/110 106/239/109 116/263/110
f 116/251/110 114/257/112 117/264/110
f 114/257/112 116/251/110 111/265/112
f 111/266/112 110/267/113 114/237/112
f 110/267/113 111/266/112 108/230/113
f 121/268/114 88/189/82 87/184/81
f 88/189/82 121/268/114 122/269/115
f 122/270/115 85/186/86 88/181/82
f 85/186/86 122/270/115 83/271/116
f 120/272/117 101/273/117 105/274/117
f 101/273/117 120/272/117 104/275/117
f 104/276/104 119/259/104 102/277/104
f 119/259/104 104/276/104 120/278/104
f 86/279/79 87/180/84 84/187/77
f 87/180/84 86/279/79 121/280/118
f 95/281/119 90/282/119 123/283/119
f 74/284/67 76/285/69 124/286/119
f 92/287/119 94/288/119 123/283/119
f 97/289/119 95/290/119 123/283/119
f 78/291/71 68/292/61 124/286/119
f 72/293/65 74/294/67 124/286/119
f 100/295/119 97/296/119 123/283/119
f 70/297/63 72/298/65 124/286/119
f 94/299/119 100/300/119 123/283/119
f 90/301/119 92/302/119 123/283/119
f 68/303/61 70/304/63 124/305/119
f 76/306/69 78/307/71 124/286/119
o part2_texture2
v 0.007812 0.063544 0.316406
v -0.269531 0.032294 0.101563
v -0.304688 0.063544 0.117188
v 0.007812 0.032294 0.277344
v 0.273438 0.063544 -0.097656
v 0.238281 0.032294 -0.085937
v -0.042969 0.063544 -0.300781
v -0.039062 0.032294 -0.261719
v -0.277344 0.016669 0.109375
v -0.035156 0.016669 -0.273437
v 0.246094 0.016669 -0.093750
v 0.003906 0.016669 0.289063
vt 0.1914 0.0000
vt 1.0000 -0.1172
vt 1.0000 0.0000
vt 0.1914 -0.1172
vt 0.1914 0.0000
vt 1.0000 -0.1172
vt 1.0000 0.0000
vt 0.1914 -0.1172
vt 0.1914 0.0000
vt 1.0000 -0.1172
vt 1.0000 0.0000
vt 0.1914 -0.1172
vt 0.1914 0.0000
vt 1.0000 -0.1172
vt 1.0000 0.0000
vt 0.1914 -0.1172
vt 0.1914 -0.0918
vt 1.0000 0.0000
vt 1.0000 -0.0918
vt 0.1914 0.0000
vt 0.1914 -0.1172
vt 1.0000 -0.1172
vt 0.1914 -0.1172
vt 1.0000 -0.1172
vt 0.1914 -0.1172
vt 1.0000 -0.1172
vt 0.1914 -0.1172
vt 1.0000 -0.1172
vn -0.1773 0.7533 -0.6334
vn 0.4314 0.8993 -0.0715
vn 0.6489 0.7533 -0.1076
vn -0.1179 0.8993 -0.4211
vn -0.6489 0.7533 0.1076
vn -0.4314 0.8993 0.0715
vn 0.1773 0.7533 0.6334
vn 0.1179 0.8993 0.4211
vn -0.7779 -0.3870 -0.4951
vn 0.4951 -0.3870 -0.7779
vn 0.7779 -0.3870 0.4951
vn -0.4951 -0.3870 0.7779
usemtl Material
s 1
f 125/308/120 126/309/121 127/310/122
f 126/309/121 125/308/120 128/311/123
f 129/312/124 128/313/123 125/314/120
f 128/313/123 129/312/124 130/315/125
f 131/316/126 130/317/125 129/318/124
f 130/317/125 131/316/126 132/319/127
f 127/320/122 132/321/127 131/322/126
f 132/321/127 127/320/122 126/323/121
f 128/324/123 132/325/127 126/326/121
f 132/325/127 128/324/123 130/327/125
f 133/328/128 131/322/128 134/329/128
f 131/322/128 133/328/128 127/320/128
f 134/330/129 129/318/129 135/331/129
f 129/318/129 134/330/129 131/316/129
f 135/332/130 125/314/130 136/333/130
f 125/314/130 135/332/130 129/312/130
f 136/334/131 127/310/131 133/335/131
f 127/310/131 136/334/131 125/308/131
